<svg xmlns="http://www.w3.org/2000/svg" xmlns:xlink="http://www.w3.org/1999/xlink" width="131.226" height="129.439" viewBox="0 0 131.226 129.439"><defs><clipPath id="a"><rect width="131.226" height="129.439" fill="none"/></clipPath></defs><g clip-path="url(#a)"><path d="M131.6,67.262A62.448,62.448,0,1,1,69.155,4.815,62.448,62.448,0,0,1,131.6,67.262" transform="translate(-0.378 -0.271)" fill="#862217"/><path d="M119.816,59.908A59.908,59.908,0,1,1,59.908,0a59.908,59.908,0,0,1,59.908,59.908" fill="#c53f1b"/><path d="M48.967,89.077C46.205,89.537,44,90.457,42.6,92.7a1.427,1.427,0,0,1-1.442.7c-4.523-.023-9.046-.054-13.569-.009-1.1.01-1.257-.34-.96-1.3.665-2.156,2.144-3.107,5.592-3.355-3.208-4.579-1.743-9.7-2.142-14.628.688-.068.884.376,1.188.622a17.5,17.5,0,0,0,15.242,3.677c1.808-.366,2.7-1.255,2.606-3.175-1.777.323-3.561.711-5.364.962-3.722.517-5.283-1.341-4.252-4.975.917-3.232,3.264-5.413,5.6-7.591,1.888-1.761,1.935-1.768.141-3.718-1.113-1.21-2.207-3.052-3.532-3.272-1.27-.21-2.31,1.879-3.435,2.969-3.745,3.627-7.445,7.3-11.159,10.958-1.16,1.142-1.349,1.119-2-.408A4.9,4.9,0,0,1,26,64.671c.174-.2.377-.374.565-.561.79-.791,1.879-1.452,2.291-2.406.524-1.213-1.191-1.521-1.629-2.488a10.026,10.026,0,0,1-1.083-3.952c-.017-.795.092-1.647,1.1-1.574.824.059,1.9.069,1.9,1.422A4.557,4.557,0,0,0,30.385,58.3c.688.751,1.274.978,2.045.051A19.811,19.811,0,0,1,34.8,55.99c.756-.644.515-.9-.215-1.313A12.251,12.251,0,0,1,28.7,47.839a4.851,4.851,0,0,1,.8-4.908c4.066-5.333,9.6-7.11,16.02-6.695a2.832,2.832,0,0,0,2.63-.952,9.109,9.109,0,0,1,3.842-2.472,2.109,2.109,0,0,1,2.724.929A7.864,7.864,0,0,1,55.723,40.9c-1.24,4.126-1.037,8.3-.651,12.5a2.744,2.744,0,0,0,1.1,1.976,15.21,15.21,0,0,1,5.78,11.761c.012.7.05,1.553-.41,1.989-1.41,1.338-.354,2.066.513,2.939a8.475,8.475,0,0,1,1.805,2.975A68.431,68.431,0,0,1,66.334,82.6c.756,2.894.79,5.673-1.348,8.2,6.377-1.676,9.542-7.75,7.283-13.795-1.5-4.013-3.868-7.549-6.192-11.108a73.556,73.556,0,0,1-6.72-11.732C54.665,42.918,60.5,30.331,69.253,24.478,74.96,20.658,81.163,18.8,88,20.259c8.253,1.759,12.764,7.512,15.375,15.094.43,1.252.691,2.562,1.028,3.846.188.713.151,1.052-.812.88a13.757,13.757,0,0,0-6.474.3C92.868,41.665,90.507,45.2,90.432,50.5c-.059,4.253,1.066,8.3,2.312,12.322a33.546,33.546,0,0,1,1.483,15.415c-.994,6.136-4.537,10.26-10.339,12.478A48.293,48.293,0,0,1,67.3,93.482c-6.646.117-13.3-.076-19.949-.092-1.012,0-1.145-.309-.883-1.223a6.119,6.119,0,0,1,2.5-3.09" transform="translate(-1.388 -1.113)" fill="#fff"/><path d="M44.084,43.782a1.992,1.992,0,0,1-2.072,1.974,1.918,1.918,0,0,1-1.842-1.994,1.957,1.957,0,0,1,3.914.02" transform="translate(-2.262 -2.355)" fill="#fff"/></g></svg>