<svg xmlns="http://www.w3.org/2000/svg" xmlns:xlink="http://www.w3.org/1999/xlink" width="970" height="168.861" viewBox="0 0 970 168.861"><defs><style>.a{fill:none;}.b{clip-path:url(#a);}.c{fill:#fff;}</style><clipPath id="a"><rect class="a" width="970" height="168.861"/></clipPath></defs><g class="b"><path class="c" d="M1914.264,121.8a60.9,60.9,0,1,0-61.014-60.968,61.1,61.1,0,0,0,61.014,60.968m-37.858-98.262c19.442-19.326,49.084-21.2,70.637-4.605,2.379,1.832,2.311,2.788.264,4.772-7.319,7.094-14.352,14.485-21.727,21.518-2.83,2.7-.226,3.915.94,5.447,1.7,2.23,2.54-.319,3.285-1.044q11.2-10.9,22.154-22.056c1.775-1.819,2.585-1.567,4.068.291,7.481,9.37,11.517,20.878,11.441,38.067-.853,16.82-10.45,33.165-29.86,42.639s-38.182,7.052-55.732-5.528c-2.686-1.925-2.531-3.1-.257-5.283,6.943-6.668,13.675-13.554,20.444-20.4.858-.868,2.943-1.777.611-3.291-1.568-1.018-2.606-3.505-5.18-.793-6.7,7.061-13.812,13.736-20.572,20.747-2.009,2.084-2.943,1.686-4.529-.358-16.464-21.213-14.769-51.45,4.013-70.121" transform="translate(-1432.26 0)"/><path class="c" d="M3793.569,5.977a61.01,61.01,0,1,0,61.072,61.231,61.143,61.143,0,0,0-61.072-61.231M3820.275,113.5a53.674,53.674,0,0,1-59.453-4.036c-2.2-1.686-2.222-2.616-.237-4.479,4.949-4.64,9.679-9.512,14.93-14.72-3.032-.712-4.562-3.886-6.7-3.274-2.015.577-3.493,3.059-5.183,4.728-2.821,2.786-5.729,5.5-8.393,8.426-1.737,1.911-2.645,1.495-4.1-.354-16.906-21.447-14.582-52.583,5.427-71.622a53.643,53.643,0,0,1,69.491-3.938c2.188,1.662,2.681,2.642.432,4.807-7.752,7.464-15.216,15.226-22.941,22.719-2.062,2-2.347,3.061-.379,5.6,2.119,2.73,3.008,2.335,5.051.243,7.677-7.86,15.633-15.45,23.214-23.4,2.382-2.5,3.363-1.692,5.045.48,19.531,25.209,11.785,63.02-16.2,78.822" transform="translate(-2884.641 -4.619)"/><path class="c" d="M60.713,121.347a60.529,60.529,0,0,0,60.911-60.49C121.673,27.433,94.575.1,61.312.013,27.448-.071.049,27,0,60.594a60.671,60.671,0,0,0,60.713,60.753M23.053,22.911c19.33-19.174,50.4-20.922,70.98-4.092,1.795,1.468,1.515,2.177.068,3.589-6.72,6.56-13.338,13.224-20.357,20.215,3.253.916,3.97,3.111,3.64,5.854,1.372.216,1.773-.92,2.4-1.543,6.525-6.45,13.049-12.9,19.466-19.461,1.479-1.511,2.265-1.623,3.6.164,11.912,15.918,15.012,33.41,7.947,51.941-7.313,19.181-21.721,30.6-42.016,33.953-15.084,2.5-28.69-1.549-40.872-10.7-1.755-1.318-2.093-2.125-.324-3.814,5.243-5,10.22-10.288,15.474-15.279,1.776-1.687,2.457-3.167,1.581-5.555-.559-1.525-.475-3.285-.805-5.968C36.363,79.8,29.487,86.686,22.735,93.688c-1.628,1.689-2.484,1.907-4.109-.127C1.99,72.754,3.873,41.937,23.053,22.911" transform="translate(0 -0.01)"/><path class="c" d="M2873.585,5.975c-33.863.3-60.732,27.9-60.484,62.118.239,33.02,28.292,60.43,61.728,59.845,36.235-.634,61.024-30.795,60.329-62.282-.727-32.926-28.226-59.978-61.572-59.681m21.572,110.293c-18.735,7.716-36.513,5.354-53.121-6.307-2.611-1.833-3.266-2.981-.522-5.373,3.834-3.342,7.189-7.226,10.918-10.7,1.8-1.673,2.292-3.024.515-4.985a24.124,24.124,0,0,1-2.285-3.8c-5.04,5.074-9.985,9.873-14.7,14.89-1.834,1.952-2.835,1.827-4.35-.255-12.019-16.508-14.873-34.448-7-53.282,7.792-18.648,22.253-29.6,42.353-32.584,14.76-2.192,27.995,1.8,39.92,10.612,2.006,1.483,2.39,2.417.37,4.323-5.105,4.818-9.987,9.874-14.948,14.844-1.514,1.518-.564,7.332,1.371,8.078,1.08.417,1.544-.716,2.134-1.3,5.482-5.411,11.013-10.776,16.339-16.338,1.892-1.975,2.861-2,4.582.221,21.36,27.528,10.679,68.668-21.573,81.951" transform="translate(-2174.067 -4.616)"/><path class="c" d="M981.287,121.081a60.534,60.534,0,1,0-60.64-60.394,60.565,60.565,0,0,0,60.64,60.394M967.934,9c16.952-4.355,32.519-.825,46.489,9.788,1.866,1.418,2.235,2.3.332,4.078-4.143,3.859-8.052,7.969-12.069,11.964-.983.977-2.127,1.774-.215,3.08,1.179.806,1.109,2.384,1.18,3.732,1.28.149,1.642-.845,2.219-1.412,3.88-3.81,7.71-7.672,11.568-11.5,3.769-3.744,3.775-3.738,6.893.431,23.18,30.989,5.074,76.851-33.114,83.737-15.519,2.8-29.676-.552-42.344-10.012-.722-.539-1.492-1.013-2.24-1.517h0c-3.278-.79-5.736-2.4-6.113-6.1C933.861,86.7,929.3,77.25,928.2,66.306,925.512,39.71,941.95,15.673,967.934,9" transform="translate(-711.51 -0.01)"/><path class="c" d="M385.694,610.662a2.492,2.492,0,0,0,2.979,1.544c1.636-.19,1.11-1.452,1.126-2.341.058-3.049.025-6.1.019-9.149,0-1.017.15-2.1-1.456-2.056-1.661.047-1.282,1.249-1.306,2.18-.046,1.786-.013,3.573-.013,5.361l-.758.247c-1.093-2.194-2.238-4.365-3.262-6.59-.709-1.541-2-1.268-3.188-1.14-1.374.147-.938,1.335-.95,2.135-.048,3.162-.027,6.325-.01,9.488,0,.892-.095,1.861,1.295,1.868,1.353.006,1.308-.9,1.373-1.834.147-2.1-.32-4.276.475-6.878,1.425,2.746,2.657,4.908,3.677,7.166" transform="translate(-292.771 -462.631)"/><path class="c" d="M985.074,609.532c1.34,0,1.372-.887,1.374-1.831.005-2.09,0-4.181,0-6.271a26.82,26.82,0,0,1,4.145,6.622c.658,1.438,1.691,1.617,3.017,1.483,1.685-.17,1.063-1.476,1.085-2.336.074-2.937.057-5.878.012-8.816-.016-1.024.441-2.431-1.47-2.357-1.646.064-1.263,1.287-1.287,2.217-.049,1.88-.015,3.763-.015,5.645l-.688.078c-1.1-2.22-2.262-4.414-3.289-6.669-.69-1.516-1.934-1.37-3.158-1.239-1.354.145-1.01,1.3-1.02,2.12-.041,3.164-.023,6.33-.014,9.495,0,.907-.071,1.855,1.307,1.858" transform="translate(-760.279 -460.597)"/><path class="c" d="M1923.237,598.815c-1.1-.026-1.275.7-1.274,1.57q.005,5.25.009,10.5c0,.924.326,1.482,1.38,1.473,1.12-.01,1.258-.706,1.259-1.563v-6.64l.747-.119c1.2,2.285,2.459,4.541,3.58,6.865a2.379,2.379,0,0,0,2.719,1.457c1.619-.172,1.152-1.429,1.168-2.331.056-3.047.032-6.1.016-9.145-.005-.994.174-2.133-1.441-2.064s-1.3,1.255-1.316,2.208c-.038,1.749-.01,3.5-.01,5.249a25.984,25.984,0,0,1-3.945-6.349c-.65-1.394-1.8-1.084-2.891-1.109" transform="translate(-1485.365 -462.777)"/><path class="c" d="M1246.666,601.693c-.3-4.257-2.706-5.86-8.252-5.727-4.448.107-1.725,3.448-2.441,5.227a3.783,3.783,0,0,0-.019,1.347c0,1.7,0,3.39,0,5.086,0,.928.043,1.649,1.3,1.933,6.13,1.379,9.841-1.676,9.4-7.866m-8.173.985c.8-1.371-1.241-4.022,2.016-4.118,2.948-.087,3.477,1.888,3.455,4.321-.021,2.311-.623,4.17-3.329,4.128-3.478-.053-1.285-2.9-2.143-4.332" transform="translate(-955.066 -460.579)"/><path class="c" d="M2284.012,610.459a1.546,1.546,0,0,0,1.49,1.79c6.3,1.126,9.643-1.811,9.111-8.162-.343-4.105-2.578-5.5-8.076-5.49-4.5,0-1.9,3.317-2.561,5.1a4.1,4.1,0,0,0-.022,1.347h.052c0,1.806-.016,3.613.006,5.419m4.688-9.274c2.707.072,3.33,1.878,3.219,4.19a5.241,5.241,0,0,1-.555,2.939,3.324,3.324,0,0,1-3.6,1.282c-1.473-.223-1.011-1.513-1.095-2.448a6.437,6.437,0,0,1,.011-2.025c.351-1.466-1.234-4.026,2.024-3.939" transform="translate(-1765.018 -462.618)"/><path class="c" d="M225.053,691.733c1.117-.3,1.448.854,2.021,1.5,1.243,1.407,1.647,4.026,4.942,2.972-.379-.643-.634-1.135-.944-1.589-1.164-1.7-2.525-2.971-.2-5.272,2.129-2.109.463-5.507-2.606-6.115a37.875,37.875,0,0,0-4.727-.279c-1.534-.106-1.95.72-1.936,2.077.032,2.945-.04,5.891.03,8.834.024.992-.575,2.49,1.254,2.6,1.929.115,1.227-1.43,1.408-2.41.15-.816-.46-1.991.759-2.32m-.8-4.566c0-1.615.911-1.834,2.167-1.764,1.176.066,2.341.238,2.363,1.755.025,1.708-1.237,1.89-2.742,1.939-1.253.16-1.788-.479-1.788-1.93" transform="translate(-171.227 -527.805)"/><path class="c" d="M1257.756,688.361c1.237-.208,1.544,1.127,2.141,1.881,1.127,1.422,1.7,3.687,4.682,2.515-.826-1.275-1.5-2.3-2.159-3.339-.471-.74-1.034-1.283.11-2.178a4.217,4.217,0,0,0,1.026-5.769c-.887-1.616-5.925-2.712-8.207-1.764-2.193.911-.985,2.949-1.123,4.463-.2,2.24-.066,4.512-.046,6.769.009.994-.169,2.174,1.4,2.155,1.641-.019,1.121-1.31,1.306-2.221.179-.881-.641-2.26.873-2.513m-.987-4.421c-.062-1.749.884-2.066,2.148-1.929,1.553,0,2.587.451,2.482,2.088-.11,1.72-1.524,1.666-2.694,1.823-1.464.2-1.888-.626-1.936-1.981" transform="translate(-969.15 -525.031)"/><path class="c" d="M1353.852,600.694c-.662-3.736-3.588-5.438-8.681-4.877-3.674.4-1.256,3.337-1.917,5a4.832,4.832,0,0,0-.029,1.681c0,1.693.016,3.386,0,5.078-.012,1.011.217,1.578,1.434,1.8,6.485,1.169,10.31-2.391,9.2-8.682m-8.055,1.715c.752-1.416-1.244-4.075,2.1-4.037,2.73.032,3.3,1.857,3.311,4.126.015,2.4-.585,4.459-3.476,4.293-3.406-.195-.972-3.041-1.938-4.382" transform="translate(-1037.978 -460.388)"/><path class="c" d="M4055.877,615.361c1.724-2.036-.216-4.847-3.094-5.36-1.317-.235-2.7-.089-4.039-.207-1.7-.15-2.469.439-2.4,2.267.108,3.04.013,6.087.037,9.13.007.972-.229,2.175,1.387,2.127s1.165-1.281,1.328-2.214c.155-.888-.623-2.271.87-2.515,1.232-.2,1.477,1.2,2.11,1.923,1.177,1.338,1.673,3.74,4.732,2.4-1.886-2.492-3.566-4.435-.927-7.552m-5.029.583c-1.433.16-1.822-.629-1.819-2.006,0-1.659,1.028-1.718,2.227-1.7,1.24.019,2.315.339,2.268,1.813-.052,1.615-1.242,1.931-2.675,1.893" transform="translate(-3127.158 -471.254)"/><path class="c" d="M1192.012,600.4c-.8-3.63-3.482-5.112-8.538-4.595-3.707.38-1.3,3.314-1.957,4.974a4.789,4.789,0,0,0-.026,1.679c0,1.691.012,3.382,0,5.072-.007.981.165,1.6,1.392,1.837,6.527,1.276,10.534-2.611,9.129-8.967m-5.922-2.03c2.73-.036,3.36,1.775,3.378,4.059.019,2.373-.492,4.471-3.416,4.361-3.472-.129-1.023-3-2.019-4.364.833-1.361-1.255-4.012,2.057-4.056" transform="translate(-912.989 -460.386)"/><path class="c" d="M2129.6,609.887c2.051-2.5,1.772-5.592.8-8.422-1.021-2.962-3.713-3.324-6.795-3.274-2.569-.649-3.473.6-3.241,3.43.22,2.7.04,5.433.063,8.151.007.885-.114,1.962,1.232,1.965,2.8.008,5.89.658,7.946-1.849m-6.762-4.692c1.008-1.559-1.159-4.221,2-4.407,2.945-.173,3.389,1.913,3.37,4.313-.018,2.314-.61,4.155-3.319,4.061-3.343-.116-.74-2.946-2.053-3.967" transform="translate(-1638.667 -462.174)"/><path class="c" d="M2187.785,603.929c-.369-4.041-2.784-5.555-8.232-5.309-4.244.192-1.49,3.391-2.225,5.083a4.553,4.553,0,0,0-.031,1.686,35.329,35.329,0,0,1-.027,4.076c-.27,2.318.763,2.818,2.9,2.8,6.145-.042,8.175-2.165,7.611-8.338m-5.8,5.656c-3.584.016-1.151-2.908-2.138-4.255.884-1.348-1.288-4.013,2-4.113,2.8-.085,3.252,1.844,3.238,4.1-.015,2.187-.292,4.259-3.1,4.272" transform="translate(-1682.557 -462.616)"/><path class="c" d="M3139.435,613.957c2.186-2.254.406-5.7-2.805-6.24a35.369,35.369,0,0,0-4.375-.2c-1.444-.058-1.977.655-1.952,2.062.052,2.927-.033,5.856.036,8.782.023.984-.577,2.486,1.25,2.566,1.842.081,1.28-1.4,1.441-2.42.128-.807-.482-1.99.76-2.284,1.118-.265,1.374.95,1.956,1.572,1.257,1.343,1.621,4.04,4.834,2.832-.44-.739-.69-1.234-1.009-1.68-1.162-1.629-2.261-2.8-.137-4.994m-4.311-.331c-1.315.087-2.123-.251-2.142-1.812-.018-1.533.7-1.931,2.063-1.887,1.252.041,2.241.293,2.32,1.792-.01,1.5-1.006,1.826-2.241,1.907" transform="translate(-2419.183 -469.513)"/><path class="c" d="M1142.656,692.97c3.459-.973,2.611-3.678,2.311-5.8-.329-2.324-2.555-.958-3.932-1.23a.989.989,0,0,0-1.245.842c-.123.769.091,1.332.969,1.437,1.028.123,1.8.513,1.42,1.729-.3.945-1.206.894-1.986.959-1.455.121-2.788-.159-3.358-1.679a6.512,6.512,0,0,1,.366-6.168c1.083-1.637,2.722-1.466,4.259-.9,1.063.389,2.292,1.323,2.846-.18.6-1.639-1.1-1.958-2.195-2.306-5-1.594-8.553,1.268-8.541,6.814s3.608,8.032,9.086,6.491" transform="translate(-876.065 -524.932)"/><path class="c" d="M3006.987,612.885c-.732-.136-1.667-.1-1.791,1.013-.094.851.415,1.214,1.2,1.268.969.066,1.478.577,1.314,1.543-.173,1.014-1.05,1.036-1.841,1.115-1.417.141-2.817.057-3.487-1.432a6.3,6.3,0,0,1,.291-6.449c1.09-1.6,2.808-1.465,4.285-.829,1.266.545,2.616,1.15,3.048-.432.32-1.171-1.268-1.674-2.332-2.029-4.942-1.653-8.655,1.21-8.672,6.659-.017,5.689,3.72,8.231,9.305,6.537,3.3-1,2.216-3.569,2.132-5.592-.1-2.39-2.215-1.14-3.455-1.372" transform="translate(-2317.743 -468.484)"/><path class="c" d="M115.435,600.563c1.127.487,2.455,1.693,3.055-.009s-1.325-2.134-2.517-2.338c-2.729-.467-5.492-.583-7.263,2.233-1.565,2.489-1.5,7.252.224,9.388,2.12,2.623,4.99,2.225,7.818,1.682,2.31-.443,2.693-2.1,2.351-4.052a11.052,11.052,0,0,0-.021-2.09c-.347-1.73-1.788-.959-2.769-1.021-.808-.051-1.977-.5-2.383.625-.477,1.324.4,1.785,1.593,1.943.941.125.916.91.763,1.566-.181.773-.89.944-1.583,1.034-1.584.206-3.076-.091-3.733-1.663a6.239,6.239,0,0,1,.47-6.456,3.111,3.111,0,0,1,4-.844" transform="translate(-83.145 -462.125)"/><path class="c" d="M2944.422,613.005c-.789.017-1.669-.017-1.761,1.091-.071.851.468,1.21,1.243,1.242a1.175,1.175,0,0,1,1.252,1.56c-.182,1.01-1.043,1.034-1.846,1.088-1.409.094-2.806.032-3.463-1.48-.948-2.185-1.094-4.465.36-6.451,1.194-1.631,3.018-1.466,4.594-.624,1.1.587,2.116.729,2.581-.349.527-1.223-.781-1.635-1.637-2.042-2.91-1.384-6.71-.477-8.218,1.908-1.869,2.955-1.325,8.678,1.119,10.345,2.46,1.678,5.131,1.327,7.808.441,1.984-.656,1.41-2.286,1.575-4.354.919-2.845-1.517-2.42-3.608-2.374" transform="translate(-2269.367 -468.639)"/><path class="c" d="M3873.051,609.381q-5.9.01-5.821,7.066c.049,4.549,1.938,6.8,5.724,6.811,3.9.015,5.864-2.363,5.832-7.069-.03-4.486-1.992-6.815-5.735-6.808m-.2,11.534c-3.01-.164-2.88-2.692-2.9-4.8s.327-4.41,3.029-4.369c3.233.05,2.933,2.746,3.025,5.032-.105,2.074-.336,4.287-3.153,4.134" transform="translate(-2988.738 -470.952)"/><path class="c" d="M1987.513,598.155q-5.7.022-5.78,6.754c-.052,4.68,1.92,7.1,5.794,7.1,3.77,0,5.695-2.268,5.738-6.776.045-4.757-1.855-7.1-5.751-7.082m.027,11.517c-3-.024-3.054-2.59-3.072-4.674-.018-2.124.176-4.648,3.2-4.51,3.086.141,2.686,2.714,2.765,4.716-.017,2.2-.051,4.49-2.891,4.468" transform="translate(-1531.556 -462.276)"/><path class="c" d="M1052.592,602.282c-.034-4.425-2-6.778-5.689-6.808-3.955-.032-5.876,2.224-5.879,6.907,0,4.774,1.833,6.981,5.8,6.962,3.844-.018,5.809-2.421,5.773-7.061m-8.858-.1c-.027-2.12.252-4.379,3.026-4.36,3.035.021,2.959,2.492,3.067,4.56-.123,2.309-.147,4.77-3.208,4.628-3.026-.141-2.858-2.7-2.885-4.828" transform="translate(-804.542 -460.204)"/><path class="c" d="M327.68,694.973c2.03-.008,4.061,0,6.091,0,.782,0,1.263-.313,1.251-1.188a1.152,1.152,0,0,0-1.208-1.3c-.788-.04-1.579-.013-2.367-.055-1.073-.056-2.376.284-2.448-1.492s1.146-1.619,2.284-1.635c.451-.006.9,0,1.353-.024.737-.036,1.344-.285,1.391-1.134s-.514-1.2-1.258-1.261c-.786-.065-1.577-.058-2.367-.071-.982-.017-1.393-.515-1.391-1.487,0-1.019.532-1.4,1.465-1.411q1.523-.015,3.046-.033c.91-.01,1.536-.323,1.479-1.378-.048-.882-.649-.985-1.368-1.124-6.179-1.193-7.407-.2-7.407,6.042,0,.338,0,.677,0,1.015,0,1.579.013,3.159,0,4.738-.007,1,.2,1.8,1.447,1.8" transform="translate(-252.12 -526.257)"/><path class="c" d="M4108,619.356c-1.02,0-2.041.008-3.057-.06s-1.253-.766-1.231-1.667c.02-.8.338-1.3,1.158-1.367.676-.052,1.358-.03,2.037-.051.8-.025,1.72.008,1.814-1.062.116-1.308-.892-1.363-1.832-1.4-.566-.02-1.133-.025-1.7-.026-.952,0-1.455-.409-1.465-1.425-.012-1,.443-1.458,1.409-1.472,1.019-.015,2.039-.023,3.059-.035.892-.011,1.569-.266,1.52-1.346-.041-.87-.616-1.011-1.349-1.159-6.009-1.213-7.422-.124-7.422,5.8q0,.51,0,1.019c0,7.5,0,7.5,7.031,6.786.748-.076,1.683.175,1.76-1.041.08-1.264-.714-1.495-1.731-1.5" transform="translate(-3169.363 -469.767)"/><path class="c" d="M2068.987,611.256a1.742,1.742,0,0,0,2.275.808c.842-.354.354-1.145.155-1.759-1.084-3.336-2.178-6.669-3.258-10.006-.334-1.035-.754-1.927-2.065-1.634-1.241-.1-2.166.014-2.6,1.5-.982,3.366-2.2,6.662-3.241,10.011-.19.61-1.071,1.521.227,1.954a1.682,1.682,0,0,0,2.009-.775c2.045-2.629,4.644-2.686,6.5-.1m-3.165-8.864c.459,1.482,2.165,2.816.937,4.46-.325.435-1.788.483-2.136-.155-.857-1.572.484-2.833,1.2-4.305" transform="translate(-1591.877 -462.626)"/><path class="c" d="M1298.677,608.145c1.387-.405,4.128,1.027,4.262-.881.2-2.842-2.7-1.171-4.2-1.552-1.022-.259-1.635-.5-1.618-1.677.019-1.222.709-1.519,1.734-1.528q1.015-.009,2.029-.062a1.087,1.087,0,0,0,1.157-1.308,1.034,1.034,0,0,0-1.115-1.012c-.788-.037-1.578-.056-2.367-.07-.975-.018-1.4-.509-1.408-1.479a1.265,1.265,0,0,1,1.425-1.451c1.015-.023,2.03-.031,3.045-.062.9-.027,1.539-.372,1.5-1.4-.035-.941-.752-.922-1.433-1.037-6.436-1.077-7.308-.357-7.308,6.092a21.406,21.406,0,0,1-.028,3.38c-.56,3.453.729,4.872,4.322,4.044" transform="translate(-1000.229 -459.233)"/><path class="c" d="M283.189,684.38a2.664,2.664,0,0,1,.676-.016c.811-.027,1.693-.047,1.773-1.117.1-1.312-.882-1.286-1.826-1.384-6.818-.71-6.869-.674-6.869,6.266v.339c0,7.068,0,7.113,5.738,6.961,1.038-.027,2.875.853,2.939-1.133.063-1.961-1.747-1.23-2.852-1.356-1.465-.167-3.6.465-2.95-2.237.37-1.536,1.89-.751,2.907-.915.878-.141,1.942.062,1.877-1.324-.053-1.119-.941-1-1.721-1.155-1.146-.223-3.132.822-3.082-1.449.054-2.484,2.193-1.107,3.391-1.48" transform="translate(-214.031 -526.74)"/><path class="c" d="M1310.35,690.74a3.828,3.828,0,0,1-.555-.385c-.91-.571-1.539-.018-1.973.646-.523.8.252,1.261.754,1.6a6.941,6.941,0,0,0,6.152.805,3.713,3.713,0,0,0,2.913-3.691,3.577,3.577,0,0,0-2.394-3.706c-.827-.349-1.726-.521-2.574-.825-.99-.355-2.636-.385-2.157-1.933.465-1.5,2.059-1.257,3.2-.81s2.492,1.518,3.013-.174c.526-1.709-1.38-1.948-2.568-2.391a6.946,6.946,0,0,0-1.748-.171c-2.239.057-4.319.611-4.828,3.215-.613,3.134,1.684,4.082,4.051,4.839,1.328.425,3.6.407,3.022,2.3-.627,2.053-2.71,1.3-4.306.672" transform="translate(-1010.471 -525.306)"/><path class="c" d="M1078.913,694.566c3.635.018,5.343-1.624,5.5-5.335.044-1.013.007-2.029.008-3.044,0-1.24.023-2.481-.007-3.721-.019-.769.087-1.675-1.1-1.708-1.217-.034-1.5.739-1.511,1.76-.022,2.254-.032,4.509-.095,6.762-.047,1.68-.746,2.784-2.63,2.824-1.99.042-2.909-.974-2.947-2.87-.046-2.254-.043-4.509-.052-6.764,0-1.046-.358-1.765-1.551-1.722-1.142.042-1.137.9-1.14,1.694-.005,2.254-.049,4.512.052,6.763.168,3.767,1.822,5.341,5.465,5.36" transform="translate(-829.55 -526.107)"/><path class="c" d="M2032.873,690.892c-.405-.066-.762-.455-1.13-.714-.9-.63-1.531-.081-2,.558-.73,1,.291,1.411.849,1.818a6.231,6.231,0,0,0,3.853,1.021c2.943-.051,4.708-1.278,4.989-3.546.351-2.835-1.28-4.114-3.777-4.682a11.349,11.349,0,0,1-1.625-.46c-.8-.315-1.976-.464-1.767-1.648.226-1.274,1.416-1.361,2.432-1.2a9.85,9.85,0,0,1,2.166.858c.8.336,1.27-.165,1.711-.684a.823.823,0,0,0-.129-1.2c-1.84-1.8-4.112-1.772-6.332-1.167a3.548,3.548,0,0,0-2.745,4.119c.317,2.693,2.6,3.092,4.647,3.729,1.23.382,3.123.508,2.448,2.4-.565,1.587-2.291,1.01-3.592.8" transform="translate(-1568.344 -525.122)"/><path class="c" d="M2895.936,605.985c-6.322-1.043-7.243-.3-7.243,5.927v1.014c.1,7.443-.835,6.623,4.1,6.547,1.535-.023,4.365,1.316,4.457-1.126.083-2.208-2.685-.832-4.15-1.13-1.07-.218-1.591-.565-1.661-1.673-.091-1.435.71-1.717,1.887-1.662.562.026,1.127,0,1.69-.01.7-.017,1.415-.085,1.5-.976.09-.993-.537-1.279-1.425-1.49-1.289-.308-3.763,1.048-3.5-1.637.223-2.3,2.52-.894,3.851-1.28a1.3,1.3,0,0,1,.337-.009c.818-.009,1.626-.034,1.682-1.152.054-1.085-.665-1.2-1.521-1.343" transform="translate(-2232.48 -468.025)"/><path class="c" d="M214.7,607.5c.2,3.741,1.815,5.123,5.686,5.064,3.56-.053,5.094-1.55,5.25-5.164.044-1.015.007-2.033.008-3.05a.923.923,0,0,0,0-.337c-.671-1.658,1.443-4.873-1.362-4.9-2.472-.022-.791,3.1-1.192,4.769a18.963,18.963,0,0,0-.116,3.376c-.093,1.8-.808,3.063-2.863,3-2.032-.062-2.716-1.359-2.753-3.146-.047-2.259-.032-4.519-.04-6.779,0-.921-.326-1.488-1.378-1.482-1.082.007-1.311.639-1.3,1.529.018,2.372-.058,4.749.067,7.116" transform="translate(-165.869 -462.82)"/><path class="c" d="M3191.769,608.394q1.53-.02,3.059-.038c.893-.009,1.576-.246,1.5-1.341-.064-.874-.673-.986-1.392-1.129-6.045-1.2-7.407-.143-7.408,5.828v1.02c0,6.7.005,6.816,4.419,6.635,1.457-.06,4.093,1.155,4.193-1.119.092-2.1-2.476-.924-3.85-1.141-1.126-.178-1.948-.311-2-1.706-.056-1.476.8-1.677,1.942-1.632a3.707,3.707,0,0,0,.679-.008c.918-.134,2.345.443,2.4-1.107.058-1.8-1.517-1.2-2.532-1.343a8.266,8.266,0,0,0-1.018-.029,1.279,1.279,0,0,1-1.437-1.461c-.006-1.023.514-1.418,1.455-1.43" transform="translate(-2463.437 -467.912)"/><path class="c" d="M1120.5,609.5c.774.029,1.1-.444,1.527-1.053a3.659,3.659,0,0,1,6.294.114,1.763,1.763,0,0,0,2.271.833c1.206-.447.31-1.378.128-1.979-.983-3.243-2.137-6.435-3.106-9.682a2.143,2.143,0,0,0-2.412-1.794,2.023,2.023,0,0,0-2.252,1.543c-1.13,3.553-2.311,7.09-3.507,10.622-.361,1.065-.026,1.482,1.058,1.4m4.461-10.418c.975,2.02,2.349,3.415,1.228,5.217a1.545,1.545,0,0,1-2.121-.072c-.978-1.682.541-3.041.893-5.145" transform="translate(-865.037 -460.566)"/><path class="c" d="M4157.8,611.15a1.621,1.621,0,0,1,.34-.015c.839-.039,1.62-.177,1.641-1.259.022-1.151-.83-1.1-1.635-1.2-6.7-.876-7.11-.532-7.11,6.038v.679c0,6.878,0,6.937,5.229,6.815,1.184-.027,3.3.841,3.4-.956.126-2.371-2.2-.993-3.409-1.367a4.527,4.527,0,0,0-1.015-.05c-1.164-.076-1.482-.784-1.459-1.843.022-1.028.573-1.386,1.492-1.407.679-.015,1.358-.018,2.038-.043.74-.027,1.334-.257,1.369-1.133.033-.861-.523-1.063-1.249-1.274-1.282-.372-3.8,1.069-3.518-1.675.238-2.271,2.538-.937,3.889-1.309" transform="translate(-3208.074 -470.135)"/><path class="c" d="M1022.909,691.277a6.452,6.452,0,0,1-1.763-.928c-.623-.334-1.085.046-1.491.42a.988.988,0,0,0-.093,1.463c1.016,1.49,5.038,2.131,7.3,1.111,2.145-.968,2.563-2.761,2.12-4.8-.54-2.48-2.863-2.582-4.732-3.223-1.033-.355-2.609-.42-2.174-1.943.443-1.551,2.033-1.218,3.172-.826,1.158.4,2.612,1.477,3.079-.214.452-1.635-1.472-1.905-2.69-2.323a4.772,4.772,0,0,0-1.325-.152c-3.119-.012-4.8,1.132-5.148,3.267-.446,2.743,1.252,3.863,3.479,4.569.428.135.883.19,1.309.33,1.171.383,2.737.7,2.206,2.343-.487,1.508-2.062,1.093-3.247.9" transform="translate(-787.59 -525.425)"/><path class="c" d="M3819,614.763a12.484,12.484,0,0,1-1.957-.544c-.694-.3-1.6-.584-1.343-1.641a1.621,1.621,0,0,1,1.854-1.156,4.515,4.515,0,0,1,2.218.664,1.37,1.37,0,0,0,2.258-.442c.65-1.166-.452-1.624-1.209-1.962a6.621,6.621,0,0,0-6.481.229,3.428,3.428,0,0,0-1.5,3.549c.275,2.588,2.441,2.995,4.347,3.643,1.326.451,3.449.476,2.736,2.489-.581,1.635-2.5,1.256-3.855.6-1.04-.5-2.2-1.45-2.823.017-.644,1.523.95,1.978,2.043,2.387a8.279,8.279,0,0,0,1.89.335c3.023.021,5.323-.533,5.747-3.549.4-2.859-1.513-4.01-3.925-4.618" transform="translate(-2946.679 -470.617)"/><path class="c" d="M3242.823,617.441c-1.129-.069-2.263-.086-3.395-.078s-1.631-.5-1.642-1.637c-.011-1.1.371-1.717,1.557-1.676.678.024,1.359-.012,2.038-.025.764-.015,1.31-.284,1.322-1.159s-.556-1.046-1.276-1.251c-1.279-.364-3.806,1.068-3.492-1.693.26-2.279,2.553-.9,3.9-1.283a1.546,1.546,0,0,1,.339-.012c.814-.038,1.667-.062,1.633-1.206-.031-1.093-.869-1.107-1.678-1.229-6.437-.966-7.066-.433-7.066,6.078,0,.227,0,.453,0,.68,0,1.586,0,3.172,0,4.758,0,.924-.043,1.933,1.271,1.954,2.151.033,4.3.017,6.453-.023a.987.987,0,0,0,1.033-1.08,1.006,1.006,0,0,0-1-1.117" transform="translate(-2500.176 -468.199)"/><path class="c" d="M2240.014,599.6c1.017-.009,2.035-.022,3.052-.047.753-.019,1.307-.275,1.312-1.161.006-.96-.678-.956-1.368-1.076-6.418-1.117-7.41-.321-7.41,6.01,0,1.017-.01,2.035,0,3.052.061,5.243-.524,4.442,4.745,4.529,1.1-.669,3.743,1.272,3.862-1.233.114-2.37-2.444-.892-3.755-1.315a5.372,5.372,0,0,0-1.01-.066c-.837-.1-1.1-.64-1.1-1.409,0-.831.04-1.655,1.088-1.793.78-.1,1.578-.06,2.366-.107.667-.04,1.439,0,1.511-.94.086-1.1-.687-1.272-1.548-1.287-.565-.01-1.13-.022-1.7-.018-1.036.008-1.745-.289-1.734-1.524.011-1.167.613-1.605,1.687-1.615" transform="translate(-1727.752 -461.303)"/><path class="c" d="M337.487,610.918c.116-2.654-2.606-1.007-4.018-1.334-1.135-.263-1.915-.414-1.857-1.793.048-1.157.63-1.6,1.706-1.61.791-.006,1.585.008,2.37-.07a.935.935,0,0,0,.915-1.153c-.064-.463-.275-.885-.811-.936-.673-.064-1.35-.08-2.026-.1-1.02-.037-2.106.092-2.141-1.455-.038-1.694,1.131-1.541,2.276-1.746,1.271-.227,3.644,1.01,3.587-1.072-.059-2.162-2.5-.738-3.827-1.152a1.183,1.183,0,0,0-.338,0c-5.031.078-4.364-.652-4.423,4.582q-.027,2.373,0,4.747c.049,4.925-.451,4.3,4.413,4.187,1.429-.034,4.075,1.21,4.175-1.087" transform="translate(-254.176 -462.473)"/><path class="c" d="M1194.472,693.359a1.7,1.7,0,0,0,2.008-.757c2.067-2.654,4.273-2.641,6.454.024a1.907,1.907,0,0,0,2.032.753c.556-.091.721-.434.381-1.857-1.05-3.063-2.208-7.084-3.844-10.9-.677-1.579-3.459-.767-4.123,1.167-1.1,3.195-2.106,6.42-3.114,9.645-.2.643-1.065,1.506.2,1.926m5.161-10.4c.815,2.116,2.278,3.515,1.119,5.335a2.429,2.429,0,0,1-2.155.03c-.956-1.772.423-3.2,1.036-5.365" transform="translate(-922.608 -525.364)"/><path class="c" d="M2080.508,693.85a1.7,1.7,0,0,0,2.042-.684c2.135-2.636,4.449-2.677,6.455-.1a1.889,1.889,0,0,0,1.991.831c.8-.11.792-.622.4-1.937-.9-2.712-2.061-6.124-3.142-9.562-.378-1.2-.89-1.915-2.313-1.959-1.607-.049-2.148.84-2.552,2.123-.981,3.116-2.025,6.213-3,9.332-.2.638-1.1,1.488.116,1.956m5.137-9.805c.906,1.554,2.38,2.945,1.192,4.758a2.336,2.336,0,0,1-2.157.02c-1.16-1.808.713-3.11.965-4.777" transform="translate(-1607.412 -525.867)"/><path class="c" d="M4003.276,608.7c-6.744-.8-6.983-.593-6.983,6.232q0,.34,0,.68c0,1.36-.062,2.723.02,4.077.062,1.01-.513,2.49,1.32,2.556,1.914.069,1.438-1.48,1.345-2.437-.225-2.3.473-3.41,2.957-3.087.792.1,1.989.372,2.073-1.034.075-1.256-.873-1.308-1.833-1.451-1.154-.172-3.1.828-3.066-1.473.037-2.268,1.974-1.169,3.121-1.435a4.344,4.344,0,0,1,1.016-.018c1,.012,1.832-.167,1.739-1.466-.082-1.132-.907-1.048-1.71-1.143" transform="translate(-3088.467 -470.173)"/><path class="c" d="M177.959,684.219a9.711,9.711,0,0,1,1.348-.045,1.207,1.207,0,0,0,1.334-1.193c.067-1.064-.628-1.215-1.5-1.361-6.092-1.023-7-.3-7,5.73q0,.507,0,1.013c0,1.351-.1,2.713.033,4.051.1,1.036-.773,2.782,1.385,2.722,1.813-.051,1.359-1.59,1.252-2.551-.273-2.432.721-3.253,3.044-2.956.863.11,1.928.149,1.868-1.245-.058-1.364-1.137-1.065-1.984-1.208-1.069-.181-2.778.632-2.794-1.414-.018-2.294,1.855-1.325,3.009-1.544" transform="translate(-132.997 -526.483)"/><path class="c" d="M3089.682,606.657c-6.763-.567-6.763-.567-6.763,6.111q0,.17,0,.34c0,1.471-.059,2.946.021,4.413.055,1.012-.509,2.5,1.294,2.581,1.872.085,1.508-1.462,1.373-2.432-.379-2.722.9-3.388,3.288-3.074.8.1,1.649.011,1.569-1.179-.06-.906-.7-1.035-1.421-1.056-.453-.013-.906-.028-1.358-.024-1.128.009-2.02-.21-2.013-1.642.006-1.542,1.074-1.469,2.11-1.485.679-.01,1.358,0,2.038-.014.917-.017,1.9.043,1.842-1.33s-1.118-1.135-1.98-1.207" transform="translate(-2382.578 -468.672)"/><path class="c" d="M2184.3,682.843c1.051-.2,2.971.579,2.643-1.528-.278-1.78-2.021-.86-3.127-1.045a12.513,12.513,0,0,0-2.035-.02v.051c-1.472,0-2.944-.036-4.414.014a1.182,1.182,0,0,0-1.226,1.319c0,.667.39,1.17,1.012,1.094,3.837-.466,3,2.264,3.046,4.384.028,1.358-.052,2.721.024,4.076.058,1.015-.493,2.469,1.33,2.553,1.868.086,1.429-1.371,1.457-2.4.057-2.15.01-4.3.029-6.454.008-.915.018-1.809,1.262-2.042" transform="translate(-1681.799 -525.679)"/><path class="c" d="M282.821,599.34c-.355-1.768-2.279-.6-3.47-.882a7.344,7.344,0,0,0-1.688-.018c-1.354,0-2.709-.01-4.063.008-.8.011-1.632.013-1.557,1.205.053.84.58,1.316,1.3,1.219,3.025-.4,2.849,1.555,2.786,3.552-.06,1.917-.011,3.837-.011,5.755,0,.943.015,1.8,1.358,1.822s1.41-.8,1.411-1.764c0-2.37-.007-4.74.019-7.11.01-.865-.189-1.838,1.076-2.143,1.121-.27,3.3.634,2.84-1.646" transform="translate(-210.241 -462.416)"/><path class="c" d="M3930.581,609.8a1.532,1.532,0,0,0-2.021.761c-.725,1.373-1.409,2.768-2.416,4.756-1.008-2.045-1.674-3.463-2.4-4.849a1.613,1.613,0,0,0-2.342-.579c-.891.449-.145,1.144.1,1.7,1.471,3.35,3.936,6.369,3.348,10.4-.113.78.365,1.225,1.212,1.237.958.013,1.609-.4,1.457-1.373-.612-3.909,1.707-6.862,3.165-10.1.29-.643,1.073-1.461-.1-1.946" transform="translate(-3030.275 -471.143)"/><path class="c" d="M172.951,612.409a5.251,5.251,0,0,0,1.19-.01c1.171-.446,3.418,1.141,3.431-1.305.011-2.112-2.079-1.2-3.215-1.215-1.856-.018-2.31-.831-2.244-2.491.091-2.254.016-4.515.015-6.773,0-.972-.1-1.817-1.417-1.791-1.353.027-1.3.964-1.307,1.877-.01,2.6.182,5.211-.054,7.786-.3,3.244.716,4.739,3.6,3.923" transform="translate(-130.843 -462.793)"/><path class="c" d="M2146.893,694.332c.986-.031,2.64.659,2.732-1.04.1-1.807-1.625-1.26-2.57-1.176-2.4.215-3.249-.721-3.064-3.088.167-2.139.036-4.3.027-6.453,0-.857-.193-1.621-1.264-1.622s-1.256.768-1.261,1.622c-.009,1.586,0,3.171,0,4.757,0,7.138,0,7.17,5.4,7" transform="translate(-1655.022 -526.266)"/><path class="c" d="M1032.772,405.074c1.618-1.539,3.069-3.27,4.778-4.7,2.2-1.835,2.135-3.1-.6-4.091a5.621,5.621,0,0,1,.016.791c1.192.715,1.35,1.6.128,2.8-1.579,1.554-3.2,3.072-4.663,4.737-.775.882-1.864,1.868-.243,3h0c-.778-1.075-.208-1.787.588-2.543" transform="translate(-797.062 -306.265)"/><path class="c" d="M1011.211,416.445c-.125-.154-.253-.314-.387-.486-.885.3-1.457,1.7-2.691.761,1.213,1.669,2.119.422,3.078-.276" transform="translate(-779.123 -321.469)"/><path class="c" d="M1960.574,135.512c4.236,3.4,8.512,6.75,12.763,10.132,4.339,3.451,9.018,6.564,12.9,10.469,3.8,3.825,9.434,4.849,12.765,9.164a2.08,2.08,0,0,0,1.823.736c5.342-.309,13.457-8.114,13.919-13.389a2.559,2.559,0,0,0-1.357-2.867c-1.577-.885-2.659-1.8-2.223-3.915.141-.685-.621-1.666-1.161-2.365q-13.582-17.607-27.233-35.161c-2.273-2.916-3.7-2.986-6.4-.4-5.481,5.245-10.907,10.546-16.341,15.839-6.365,6.2-6.368,6.218.54,11.761m-1.93-7.849q9.592-9.131,18.993-18.461c1.606-1.6,2.513-1.225,3.729.355q13.458,17.481,27.025,34.879c1.258,1.611,1.059,2.724-.347,4.056q-5.422,5.138-10.693,10.434c-1.518,1.518-2.867,1.654-4.254-.079q-17.379-13.142-34.05-27.171h0c-2.4-1.114-2.178-2.322-.4-4.013" transform="translate(-1511.148 -81.957)"/><path class="c" d="M4031.464,310.166l-.007.015.016-.011-.009,0" transform="translate(-3115.659 -239.708)"/><path class="c" d="M3907.073,163.689c-1.365-7.814-6.222-11.967-13.833-13.33-3.027-.542-5.995-1.32-7.961-4.018l-.837.817c.774,3.8-.215,7.272-1.909,10.61.037.017.073.031.109.046l3.119-2.778a12.071,12.071,0,1,1,14.078,19.587c-2.229,1.534-3.962,1.712-5.5-1.058a19.714,19.714,0,0,0-11.636-9.8c-1.317-.4-2.015-1.052-1.01-2.418q.383-1.682.766-3.363l0,0-.048.043h0c.007-.013.013-.027.02-.04-5.677,3.935-4.615,4.295-7.671-2.085a28.1,28.1,0,0,0-9.535-10.746c-2.465-1.754-1.946-2.975.083-4.55,3.09-2.4,6.552-2.81,10.257-2.293l1.375-.639a20.365,20.365,0,0,1-9.761-9.024,17.5,17.5,0,0,0-10.656-8.436,22.226,22.226,0,0,1-10.428-6.047c-1.627-1.742-2.023-.8-2.5.86q-1.98,6.839-4.159,13.619a14.565,14.565,0,0,0,3.21,14.868,26.8,26.8,0,0,1,6.512,14.277c1.018,6.834,4.6,11.406,11.323,13.346a14.349,14.349,0,0,1,9.3,7.8c2.722,5.472,7.516,8.124,13.444,8.292,6.076.172,11.937-1.724,18.5-2.252-1.221-1.57-2.049-2.6-2.844-3.663-2.588-3.454-2.592-3.8,1.274-5.509,3.838-1.7,7.808-3.1,12.067-4.764-2.76-2.061-4.605-4.286-5.141-7.355M3862.666,141.4a28.851,28.851,0,0,0-9.494-19.246,11.353,11.353,0,0,1,11.844,6.655,10.666,10.666,0,0,1-2.35,12.59" transform="translate(-2966.625 -87.515)"/><path class="c" d="M4005.2,221.822a14.285,14.285,0,0,1,7.773,7.948.911.911,0,0,1,1.048-.289,12.434,12.434,0,0,0-8.346-8.666h0a.855.855,0,0,1-.475,1.007" transform="translate(-3095.368 -170.654)"/><path class="c" d="M217.583,95.612c2.4.762,3.337,1.823,2.981,4.227-.152,1.025-.123,2.078-.207,3.739-2.245-4.2-5.21-6.163-9.217-6.6-2.478-.272-3.323.858-2.884,3.181.866,4.583,3.923,7.244,7.969,9,4.76,2.066,4.767,2.05,3.936,7.847-2.168-3.51-5.028-5.52-9.073-5.872-2.9-.253-3.273,1.065-2.729,3.366,1.167,4.935,4.584,7.768,9.166,9.111,2.622.769,3.432,2.11,3.043,4.614a17.419,17.419,0,0,0-.022,2.653,11.261,11.261,0,0,0-9.841-5.591c-2.23-.091-2.776.8-2.457,2.793.768,4.8,4.012,7.415,8.109,9.273,4.728,2.143,4.737,2.124,3.7,7.47-2.276-3.55-5.263-5.611-9.52-5.654-2.052-.021-2.58.829-2.329,2.659a10.714,10.714,0,0,0,7.031,8.884c3.277,1.3,6.189,2.445,5.844,6.715-.01.127.473.293.887.534.23-.529.585-.943.537-1.3-.4-3.03,1.074-4.282,3.876-5.161,4.293-1.348,7.459-4.114,8.636-8.784.695-2.756-.092-3.7-2.95-3.515-4.058.263-6.707,2.634-9.072,5.871-.883-4.089-.387-6.662,4-7.907a10.96,10.96,0,0,0,8.1-8.8c.415-2.1.071-3.124-2.432-3.094-4.385.053-7.394,2.167-9.649,6.059-.794-5.951-.8-5.963,3.946-8.006a13.915,13.915,0,0,0,7.083-6.073c.923-1.7,2.052-3.964.916-5.43-1.163-1.5-3.536-.6-5.413-.2-3.04.657-4.652,3.177-6.571,5.245-1.093-4.231.012-6.68,4.4-7.921a10.566,10.566,0,0,0,7.575-8.037c.8-3.383.1-4.147-3.27-3.764a10.886,10.886,0,0,0-8.706,6.091c-1.223-4.453-.166-7.063,4.341-8.348a10.788,10.788,0,0,0,7.622-8.02c.856-3.277.37-3.887-2.931-3.738-4.067.184-6.737,2.654-9.116,5.908a9.093,9.093,0,0,1,1.566-7.328c2.768-4.072,1.925-10.751-1.227-14.3-1.256-1.412-2.047-1.292-3.176.11a12.644,12.644,0,0,0-.863,14.6,8.343,8.343,0,0,1,1.088,7.055c-2.1-3.738-4.924-5.742-8.838-6-3.237-.213-3.814.477-3.012,3.7,1.2,4.831,4.809,7.361,9.152,8.74" transform="translate(-160.833 -51.324)"/><path class="c" d="M2993.944,150.123a61.4,61.4,0,0,0-9.5,26.244c-1.871,13.593,6.986,24.53,20.85,25.548,12.975.952,23.093-8.877,23.07-24.053a57.914,57.914,0,0,0-9.587-27.667c-7.706-11.653-17.074-11.674-24.832-.072m10.59-1.689c-7.366,5.045-9.963,12.822-12.026,20.913-.194.761-.413,1.694-1.483,1.41-1.005-.267-.824-1.19-.707-2.387,1.967-7.436,4.47-15.013,11.031-20.427a12.687,12.687,0,0,1,1.977-1.292,1.123,1.123,0,0,1,1.508.335.944.944,0,0,1-.3,1.448" transform="translate(-2306.296 -109.308)"/><path class="c" d="M1008.336,174.763c5.226,3.377,10.431,6.793,15.53,10.356,1.942,1.358,3.506,1.489,5.537.2,4.771-3.038,9.716-5.8,14.492-8.833a3.993,3.993,0,0,1,4.927-.036c4.869,3.093,9.9,5.923,14.8,8.97a4.164,4.164,0,0,0,4.985.034q8.061-5.034,16.3-9.781a4.126,4.126,0,0,0,2.312-4.1q-.137-9.167,0-18.338a4.144,4.144,0,0,0-2.3-4.112c-4.412-2.541-8.626-5.456-13.161-7.743-3.4-1.712-5.019-3.869-4.315-7.679a3.68,3.68,0,0,0-2.08-4.19c-5.683-3.281-11.306-6.669-16.9-10.1a3.482,3.482,0,0,0-4.074-.035q-8.553,5.208-17.179,10.3c-1.169.692-2.133,1.537-1.8,2.943,1.267,5.361-1.963,7.773-6.1,9.724-1.426.672-2.649,1.8-4.1,2.393-7.673,3.149-12.04,8.087-9.541,16.932,0,2.717.179,5.449-.054,8.146-.207,2.4.851,3.744,2.721,4.953m33.476,0c-4.349,2.618-8.7,5.235-13.793,8.3,0-6.324-.085-11.952.037-17.576.059-2.694,6.679-5.81,9.091-4.367,1.648.986,3.214,2.109,4.812,3.177,4.639,3.1,4.575,7.623-.148,10.466m23.012,8.283c-5.729-3.414-10.988-6.434-16.114-9.665-1.75-1.1-1.306-6.649.469-7.831,1.6-1.064,3.277-2.01,4.928-3,4.781-2.856,5.2-2.815,9.45.445a2.626,2.626,0,0,1,1.277,2.219c-.02,5.727-.01,11.455-.01,17.827m19.734-12.107c0,.931-.047,1.849-.941,2.39-5.18,3.139-10.372,6.261-16.112,9.722,0-6.487,0-12.309,0-18.13a1.845,1.845,0,0,1,.893-1.711l16.154-9.676c0,6.342,0,11.873,0,17.4m-17.111-25.533c.014-.991,0-1.982,0-3.667l15.892,9.475c-5.629,3.375-10.661,6.376-15.675,9.405-2.519,1.522-3.92-.786-5.7-1.676-.692-.346-.234-1.067.333-1.243,6.623-2.059,5.081-7.511,5.147-12.294m-2.607,5.818a2.632,2.632,0,0,1-1.21,2.593c-5.107,3.044-10.2,6.108-15.84,9.489,0-6.451,0-12.277,0-18.1a1.841,1.841,0,0,1,.881-1.717c5.2-3.111,10.406-6.226,16.156-9.667,0,6.339-.012,11.873.01,17.406m-20-29.1a2.793,2.793,0,0,1,3.171.021c5.014,3.04,10.049,6.046,15.6,9.379-5.684,3.395-10.956,6.55-16.236,9.692a2.3,2.3,0,0,1-2.531-.337c-5.032-3.019-10.072-6.024-15.649-9.357,5.589-3.355,10.623-6.365,15.644-9.4m-16.774,11.75c5.7,3.423,10.908,6.542,16.1,9.683a2.158,2.158,0,0,1,.917,2.057c-.017,5.634-.009,11.268-.009,17.615-5.65-3.762-10.633-7.084-15.621-10.4a2.481,2.481,0,0,1-1.4-2.152c.02-5.4.009-10.792.009-16.8m-2.525,7.709c-.688,7.3-1.2,14.024,7.507,16.251-5.574,4.113-5.659,4.129-10.688,1.132-4.153-2.476-8.289-4.981-12.892-7.749l16.073-9.634m-17.233,12,16,9.6a2.4,2.4,0,0,1,1.04,2.341c-.016,5.538-.008,11.077-.008,17.4-5.664-3.77-10.72-7.15-15.8-10.5a2.747,2.747,0,0,1-1.252-2.584c.031-5.2.014-10.4.014-16.258" transform="translate(-776.672 -91.763)"/><path class="c" d="M1023.579,394.755c1.161-1.149,2.361-2.119,4.106-1.243a1.872,1.872,0,0,1,.477-.529c-1.387-1.294-2.75-1.325-4.077.087q-2.056,2.188-4.106,4.382c.211.1.414.2.61.291,1.008-.985,1.988-2,2.989-2.988" transform="translate(-788.278 -302.961)"/><path class="c" d="M1029,398.617c-.286.46-.408,1.011-.652,1.5-1.8,3.579-3.178,4.22-6.444,2.734l-.129.129-.094.066c2.244,2.757,3.142,2.636,5.829-.132a6.169,6.169,0,0,0,1.983-4.032c-.13-.078-.269-.155-.423-.229-.024-.013-.047-.021-.07-.033" transform="translate(-789.596 -308.066)"/><path class="c" d="M1973.635,216.882l.152.017a2.219,2.219,0,0,1-.548-.924l-1.539.656a4.6,4.6,0,0,0,1.935.251" transform="translate(-1523.803 -166.913)"/><path class="c" d="M2122.141,333.307h0l-.591-.472a1.247,1.247,0,0,0-.251,1.281l.842-.81" transform="translate(-1639.351 -257.227)"/><path class="c" d="M4031.873,296.983a5.052,5.052,0,0,0-.169.9c-.152,1.5.995,1.874,2.033,2.312a21.784,21.784,0,0,1,10.1,8.651c1.882,2.949,3.441,3.023,5.946.657a11.2,11.2,0,0,0,.965-15.829c-3.707-4.347-10.267-4.909-15.235-1.293a2.161,2.161,0,0,0-.453.3c-.077,2.071-1.785,3.09-3.188,4.306" transform="translate(-3115.84 -224.122)"/><path class="c" d="M4031.548,310.116l-.023.016.006,0,.017-.019" transform="translate(-3115.712 -239.669)"/><path class="c" d="M3974.187,234.313l.021-.033c-1.6-.686-1.81-2.57-2.769-3.778-1.465-1.846-3.9-2.473-5.269-4.326l-.189.067c-2.861.4-5.9-.375-8.555,1.475-2.617,1.823-2.742,2.783-.285,4.817A30.069,30.069,0,0,1,3966,243.5c1.568,3.559,1.738,3.484,5.478,1.793a1.276,1.276,0,0,1,1.191-.043l.1-.2a3.517,3.517,0,0,1-.4-.221,62.982,62.982,0,0,0,1.818-10.516" transform="translate(-3056.863 -174.796)"/><path class="c" d="M4001.611,224.2a3.725,3.725,0,0,0,.525-.211c-.293-.129-.593-.253-.9-.368a4.763,4.763,0,0,0,.375.579" transform="translate(-3092.303 -172.826)"/><path class="c" d="M4038.531,260.233a2.418,2.418,0,0,0-.262.368,2.894,2.894,0,0,0,.473.161c-.067-.18-.14-.353-.211-.528" transform="translate(-3120.924 -201.118)"/><path class="c" d="M4031.6,308.788c.021.012.042.02.062.034a1.892,1.892,0,0,1,.346,1.366c.49-.619,1.033-1.2,1.526-1.822a1.587,1.587,0,0,1-1.746.25l-.187.166v.007" transform="translate(-3115.77 -238.317)"/><path class="c" d="M4031.568,310.114h0l-.017.019.006,0,.005,0,0-.018" transform="translate(-3115.733 -239.668)"/><path class="c" d="M4029.2,317.375a6.576,6.576,0,0,0,.2-.989,7.34,7.34,0,0,0-1.173,1.964h0a7.721,7.721,0,0,1,.969-.975" transform="translate(-3113.166 -244.515)"/><path class="c" d="M4041.572,298.269a4.528,4.528,0,0,0-.085-1.033,6.776,6.776,0,0,1-1.374,2.528c.52-.418.943-1.065,1.459-1.495" transform="translate(-3122.349 -229.715)"/><path class="c" d="M4031.411,310.2l-.041.047h0Z" transform="translate(-3115.593 -239.733)"/><path class="c" d="M1980.11,217.02c8.578.972,17.08,2.468,25.524,4.2,6.053,1.243,11.269,4.583,16.4,7.925.952.62,1.691,1.445.173,2.252-4.613,2.453-7.434,6.66-10.546,10.584a2.205,2.205,0,0,1,.171,1.01c3.979-4.625,7.3-9.952,14-12.275-5.928-4.4-11.542-8.289-17.983-9.876a209.069,209.069,0,0,0-29.368-4.867c.552.34,1.1.69,1.635,1.045" transform="translate(-1529.039 -166.913)"/><path class="c" d="M2013.524,245.127a5.292,5.292,0,0,0-1.907-1.841c-3.948-3-7.711-6.247-11.669-9.231-6.046-4.559-11.632-9.721-17.972-13.891q-.543-.061-1.086-.121a14.805,14.805,0,0,0,1.553,1.184q15.322,12.229,30.66,24.438c.029-.039.057-.079.087-.117l.334-.42" transform="translate(-1530.905 -170.057)"/></g></svg>