<svg xmlns="http://www.w3.org/2000/svg" xmlns:xlink="http://www.w3.org/1999/xlink" width="126.815" height="125.088" viewBox="0 0 126.815 125.088">
  <defs>
    <clipPath id="clip-path">
      <rect id="Rectangle_1342" data-name="Rectangle 1342" width="126.815" height="125.088" fill="none"/>
    </clipPath>
  </defs>
  <g id="Group_4053" data-name="Group 4053" clip-path="url(#clip-path)">
    <path id="Path_2448" data-name="Path 2448" d="M127.406,65.163A60.349,60.349,0,1,1,67.056,4.815a60.349,60.349,0,0,1,60.349,60.348" transform="translate(-0.591 -0.424)" fill="#862217"/>
    <path id="Path_2449" data-name="Path 2449" d="M115.788,57.894A57.894,57.894,0,1,1,57.894,0a57.894,57.894,0,0,1,57.894,57.894" fill="#c53f1b"/>
    <path id="Path_2450" data-name="Path 2450" d="M48.149,86.747c-2.668.445-4.8,1.334-6.153,3.5a1.379,1.379,0,0,1-1.393.679c-4.371-.022-8.742-.052-13.113-.009-1.066.01-1.215-.328-.927-1.26.643-2.084,2.072-3,5.4-3.242-3.1-4.425-1.684-9.376-2.07-14.136.665-.066.855.363,1.148.6a16.911,16.911,0,0,0,14.73,3.553c1.747-.354,2.614-1.213,2.518-3.069-1.717.312-3.441.687-5.184.929-3.6.5-5.105-1.3-4.109-4.808.886-3.123,3.154-5.231,5.413-7.336,1.825-1.7,1.87-1.708.136-3.593-1.075-1.169-2.133-2.949-3.413-3.162-1.228-.2-2.232,1.816-3.32,2.869-3.62,3.5-7.194,7.055-10.784,10.59-1.121,1.1-1.3,1.082-1.931-.394a4.733,4.733,0,0,1,.855-5.3c.168-.193.365-.361.546-.543.763-.764,1.816-1.4,2.214-2.326.506-1.172-1.151-1.47-1.574-2.4a9.689,9.689,0,0,1-1.047-3.819c-.016-.768.088-1.591,1.059-1.521.8.057,1.839.067,1.836,1.374a4.4,4.4,0,0,0,1.2,3.08c.665.726,1.231.945,1.976.049a19.145,19.145,0,0,1,2.295-2.28c.73-.622.5-.874-.208-1.269a11.839,11.839,0,0,1-5.686-6.609,4.688,4.688,0,0,1,.769-4.743c3.93-5.154,9.277-6.871,15.482-6.469a2.736,2.736,0,0,0,2.542-.92,8.8,8.8,0,0,1,3.713-2.388,2.038,2.038,0,0,1,2.633.9,7.6,7.6,0,0,1,.973,6.917c-1.2,3.987-1,8.019-.629,12.076a2.652,2.652,0,0,0,1.065,1.91A14.7,14.7,0,0,1,60.7,65.54c.012.679.048,1.5-.4,1.922-1.362,1.293-.342,2,.5,2.84a8.19,8.19,0,0,1,1.745,2.875,66.132,66.132,0,0,1,2.388,7.312c.73,2.8.763,5.483-1.3,7.923,6.163-1.62,9.221-7.49,7.039-13.331a55.53,55.53,0,0,0-5.983-10.735A71.084,71.084,0,0,1,58.192,53.01c-4.536-10.87,1.107-23.033,9.562-28.69,5.515-3.692,11.51-5.484,18.117-4.076,7.976,1.7,12.335,7.259,14.858,14.587.416,1.21.668,2.476.993,3.717.181.689.146,1.017-.784.85a13.3,13.3,0,0,0-6.256.286c-4.107,1.246-6.388,4.663-6.46,9.779-.057,4.11,1.031,8.02,2.234,11.908a32.419,32.419,0,0,1,1.434,14.9c-.96,5.93-4.385,9.915-9.991,12.059A46.67,46.67,0,0,1,65.867,91c-6.423.113-12.851-.074-19.278-.089-.978,0-1.106-.3-.854-1.182a5.913,5.913,0,0,1,2.414-2.986" transform="translate(-2.17 -1.74)" fill="#fff"/>
    <path id="Path_2451" data-name="Path 2451" d="M43.953,43.716a1.925,1.925,0,0,1-2,1.908A1.853,1.853,0,0,1,40.17,43.7a1.892,1.892,0,0,1,3.783.019" transform="translate(-3.536 -3.682)" fill="#fff"/>
  </g>
</svg>
